<svg preserveAspectRatio="none" width="100%" height="100%" overflow="visible" style="display: block;" viewBox="0 0 54.4775 54.3721" fill="none" xmlns="http://www.w3.org/2000/svg">
<g id="Group 3">
<path id="Subtract" d="M25.0176 54.3721C22.1156 54.1379 19.3423 53.4495 16.7686 52.377L17.8037 40.7461L25.0176 54.3721ZM29.46 45.0254C29.7379 45.8158 30.1032 46.5782 30.5693 47.2861C31.4861 48.6783 32.7897 49.8513 34.5225 50.5566C36.1874 51.2342 38.1302 51.4315 40.3242 51.1182C37.1304 52.871 33.5474 54.0011 29.7373 54.3477L29.46 45.0254ZM2.83398 28.8047L2.85254 28.8506L11.1074 49.1729C4.37164 44.214 1.76134e-05 36.2304 0 27.2246C0 25.5897 0.143832 23.9883 0.419922 22.4326L2.83398 28.8047ZM44.8486 11.0742C46.8196 13.2218 48.2601 15.7896 49.6299 18.8594L52.6855 17.4951C53.8416 20.5169 54.4775 23.7964 54.4775 27.2246C54.4775 31.7263 53.3829 35.9718 51.4492 39.7129L39.0986 38.9619L38.8447 43.1445L44.7363 43.5029C44.3254 43.9972 43.94 44.4046 43.542 44.7598C42.6093 45.5919 41.5184 46.2248 39.6699 46.9785C38.0974 47.1944 36.9432 47.0174 36.1016 46.6748C35.2286 46.3194 34.5668 45.7368 34.0693 44.9814C33.0311 43.4044 32.7157 41.0528 33.0771 38.8838C33.8323 34.3534 37.1847 31.5077 41.1562 30.5146C42.6512 30.141 44.3164 30.656 45.7295 31.7158C46.4188 32.2328 46.9684 32.8256 47.3301 33.3691C47.5096 33.6391 47.6289 33.8748 47.6982 34.0605C47.7322 34.1515 47.7512 34.2231 47.7617 34.2744C47.7712 34.3206 47.7724 34.3453 47.7725 34.3486H51.9629C51.9628 33.1404 51.4379 31.9777 50.8193 31.0479C50.1727 30.076 49.2829 29.1423 48.2441 28.3633C46.5329 27.0798 44.1896 26.0586 41.6445 26.2168L42.5664 21.6133L46.333 23.1611L47.9248 19.2842L43.4375 17.4395L44.8486 11.0742ZM11.9316 20.7646C13.6197 25.8541 16.4632 29.1852 20.1865 28.5732L20.4053 28.5332C22.6278 28.0745 23.9845 26.3277 24.6357 23.8242L25.2949 45.9414L18.1943 32.5293L14.2559 33.3242L13.3467 43.5498L7.27344 28.5977C8.11783 27.762 9.19007 26.634 10.0176 25.5996C11.0405 24.3208 11.6801 22.5135 11.9316 20.7646ZM35.6367 28.3232C32.6484 30.1423 30.2207 33.006 29.2178 36.9014L28.6543 17.9629L35.6367 28.3232ZM15.8672 7.19922C16.5828 7.08737 17.1484 7.21522 17.9141 8.17383C18.8514 9.3474 19.7945 11.5249 20.4209 14.8672C21.0477 18.212 21.0458 20.957 20.5908 22.7383C20.1587 24.4295 19.6263 24.4187 19.5059 24.4385C19.2839 24.475 18.7072 24.5662 17.6934 23.1709C16.6264 21.7023 15.6274 19.2038 15.0049 15.8818C14.3534 12.4053 14.3229 9.94977 14.708 8.47852C14.883 7.81006 15.0921 7.55179 15.1777 7.4668C15.23 7.41503 15.3772 7.27589 15.8672 7.19922ZM6.56738 16.6592C6.67665 16.6387 6.77635 16.644 6.87305 16.6738C6.9671 16.703 7.12151 16.7749 7.31836 16.9717C7.61145 17.2648 7.95823 18.1581 7.8418 19.6543C7.73084 21.0782 7.24372 22.3579 6.74512 22.9814C6.4054 23.4061 6.00679 23.8556 5.60547 24.291L4.27539 20.7764C4.61842 19.3131 5.06518 18.3739 5.93359 17.0713C6.05378 16.8912 6.30883 16.7077 6.56738 16.6592ZM41.8633 4.24219C41.924 4.28094 41.9845 4.32016 42.0449 4.35938L38.9648 18.2549L38.9609 18.2764L38.9561 18.2979L37.8066 24.043L31.3799 14.5088L41.8633 4.24219ZM12.2207 4.49707C10.3208 6.38846 9.94855 9.89318 10.5049 14.249C10.4332 14.1674 10.359 14.0866 10.2812 14.0088C8.95307 12.6808 7.31112 12.2567 5.79492 12.541C5.04463 12.6817 4.3522 12.9906 3.75977 13.4092C5.86782 9.83433 8.7684 6.78287 12.2207 4.49707ZM24.3057 12.9619C22.8385 6.34399 19.8213 2.33907 15.2197 3.05859C14.8565 3.1154 14.5169 3.19964 14.1982 3.30469C17.1455 1.69455 20.4231 0.614372 23.9033 0.189453L24.3057 12.9619ZM28.0918 0C31.5928 0.107727 34.9267 0.876985 37.9746 2.18555L28.4541 11.5088L28.0918 0Z" fill="var(--fill-0, #FFFEFD)"/>
</g>
</svg>
